<?xml version="1.0" encoding="UTF-8"?>
<svg xmlns="http://www.w3.org/2000/svg" width="512" height="512" viewBox="0 0 128 128"><path d="M114,15.25H14A9.761,9.761,0,0,0,4.25,25v77A10.762,10.762,0,0,0,15,112.75h98A10.762,10.762,0,0,0,123.75,102V25A9.761,9.761,0,0,0,114,15.25ZM120.25,25V36.683H52.888L61.37,18.75H114A6.257,6.257,0,0,1,120.25,25ZM14,18.75H57.5L49.016,36.683H7.75V25A6.257,6.257,0,0,1,14,18.75Zm99,90.5H15A7.258,7.258,0,0,1,7.75,102V40.183h112.5V102A7.258,7.258,0,0,1,113,109.25Z"/><path d="M21.57,33.466a5.75,5.75,0,1,0-5.75-5.75A5.756,5.756,0,0,0,21.57,33.466Zm0-8a2.25,2.25,0,1,1-2.25,2.25A2.253,2.253,0,0,1,21.57,25.466Z"/><path d="M37.626,33.466a5.75,5.75,0,1,0-5.75-5.75A5.756,5.756,0,0,0,37.626,33.466Zm0-8a2.25,2.25,0,1,1-2.25,2.25A2.253,2.253,0,0,1,37.626,25.466Z"/><path d="M67.522,29.466h44.745a1.75,1.75,0,0,0,0-3.5H67.522a1.75,1.75,0,0,0,0,3.5Z"/><path d="M68,96.966H63.75V69A1.751,1.751,0,0,0,62,67.25H50.727A1.75,1.75,0,0,0,48.977,69V96.966H44.463V60a1.751,1.751,0,0,0-1.75-1.75H31.439A1.751,1.751,0,0,0,29.689,60V96.966H23.528V50.716a1.75,1.75,0,0,0-3.5,0v46.25H14.916a1.75,1.75,0,1,0,0,3.5H68a1.75,1.75,0,0,0,0-3.5Zm-34.811,0V61.75h7.774V96.966Zm19.288,0V70.75H60.25V96.966Z"/><path d="M109.686,55.716h-29a1.75,1.75,0,0,0,0,3.5h29a1.75,1.75,0,0,0,0-3.5Z"/><path d="M109.686,67.216h-29a1.75,1.75,0,0,0,0,3.5h29a1.75,1.75,0,0,0,0-3.5Z"/><path d="M109.686,78.716h-29a1.75,1.75,0,0,0,0,3.5h29a1.75,1.75,0,0,0,0-3.5Z"/><path d="M109.686,90.216h-29a1.75,1.75,0,0,0,0,3.5h29a1.75,1.75,0,0,0,0-3.5Z"/></svg>
