<?xml version="1.0" encoding="UTF-8"?>
<!-- Generator: Adobe Illustrator 16.0.3, SVG Export Plug-In . SVG Version: 6.00 Build 0)  -->
<!DOCTYPE svg PUBLIC "-//W3C//DTD SVG 1.1//EN" "http://www.w3.org/Graphics/SVG/1.1/DTD/svg11.dtd">
<svg version="1.1" id="Layer_1" xmlns="http://www.w3.org/2000/svg" xmlns:xlink="http://www.w3.org/1999/xlink" x="0px" y="0px" width="50px" height="50px" viewBox="0 0 50 50" enable-background="new 0 0 50 50" xml:space="preserve">
<g>
	<path fill="#43619C" d="M25.003,1.657C12.11,1.657,1.657,12.11,1.657,25.004c0,12.887,10.453,23.339,23.346,23.339   c12.888,0,23.34-10.452,23.34-23.339C48.343,12.11,37.891,1.657,25.003,1.657 M36.359,34.871c0,0.689-0.338,1.138-1.021,1.138   h-5.743v-8.607h2.921l0.443-3.688h-3.364v-1.919c0-0.984,0.265-1.771,1.68-1.771h2.01V17.09c-0.615-0.042-1.567-0.135-2.816-0.135   c-2.594,0-4.562,1.586-4.562,4.501v2.257h-3.074v3.688h3.074v8.607H15.258c-0.688,0-1.033-0.448-1.033-1.138V14.791   c0-0.688,0.345-1.531,1.033-1.531h20.081c0.683,0,1.021,0.842,1.021,1.531V34.871z"/>
</g>
</svg>