<?xml version="1.0" encoding="UTF-8"?>
<!-- Generator: Adobe Illustrator 16.0.3, SVG Export Plug-In . SVG Version: 6.00 Build 0)  -->
<!DOCTYPE svg PUBLIC "-//W3C//DTD SVG 1.1//EN" "http://www.w3.org/Graphics/SVG/1.1/DTD/svg11.dtd">
<svg version="1.1" id="Layer_1" xmlns="http://www.w3.org/2000/svg" xmlns:xlink="http://www.w3.org/1999/xlink" x="0px" y="0px" width="50px" height="50px" viewBox="0 0 50 50" enable-background="new 0 0 50 50" xml:space="preserve">
<g>
	<path fill="#2A5B83" d="M48.344,25c0,12.893-10.451,23.344-23.344,23.344S1.656,37.893,1.656,25S12.107,1.657,25,1.657   S48.344,12.107,48.344,25"/>
	<path fill="#FFFFFF" d="M34.18,13.668H16.996c-1.48,0-2.68,1.197-2.68,2.673v17.196c0,1.477,1.199,2.674,2.68,2.674H34.18   c1.479,0,2.68-1.197,2.68-2.674V16.341C36.859,14.865,35.659,13.668,34.18,13.668 M30.519,17.19c0-0.389,0.315-0.704,0.705-0.704   h2.113c0.389,0,0.704,0.315,0.704,0.704v2.114c0,0.389-0.315,0.704-0.704,0.704h-2.113c-0.39,0-0.705-0.315-0.705-0.704V17.19z    M25.614,20.641c2.394,0,4.335,1.937,4.335,4.325s-1.941,4.325-4.335,4.325c-2.395,0-4.336-1.937-4.336-4.325   S23.22,20.641,25.614,20.641 M34.745,33.393c0,0.389-0.314,0.705-0.704,0.705H17.135c-0.39,0-0.705-0.316-0.705-0.705V22.826h2.817   c-0.366,0.528-0.49,1.514-0.49,2.14c0,3.772,3.076,6.841,6.857,6.841c3.78,0,6.857-3.069,6.857-6.841   c0-0.626-0.089-1.596-0.544-2.14h2.817V33.393z"/>
</g>
</svg>