<?xml version="1.0" encoding="UTF-8"?>
<!-- Generator: Adobe Illustrator 16.0.3, SVG Export Plug-In . SVG Version: 6.00 Build 0)  -->
<!DOCTYPE svg PUBLIC "-//W3C//DTD SVG 1.1//EN" "http://www.w3.org/Graphics/SVG/1.1/DTD/svg11.dtd">
<svg version="1.1" id="Layer_1" xmlns="http://www.w3.org/2000/svg" xmlns:xlink="http://www.w3.org/1999/xlink" x="0px" y="0px" width="50px" height="50px" viewBox="0 0 50 50" enable-background="new 0 0 50 50" xml:space="preserve">
<g>
	<path fill="#187FB8" d="M48.344,25c0,12.893-10.451,23.344-23.344,23.344S1.656,37.893,1.656,25S12.107,1.656,25,1.656   S48.344,12.107,48.344,25"/>
	<rect x="14.641" y="21.472" fill="#FFFFFF" width="4.42" height="14.007"/>
	<path fill="#FFFFFF" d="M31.14,21.337c-2.532,0-4.119,1.372-4.412,2.333v-2.198h-4.967c0.063,1.167,0,14.007,0,14.007h4.967v-7.58   c0-0.42-0.021-0.842,0.107-1.145c0.342-0.842,1.075-1.717,2.394-1.717c1.725,0,2.509,1.296,2.509,3.193v7.248h5.013v-7.789   C36.75,23.352,34.282,21.337,31.14,21.337"/>
	<path fill="#FFFFFF" d="M16.769,14.859c-1.633,0-2.7,1.048-2.7,2.432c0,1.357,1.037,2.428,2.638,2.428h0.032   c1.662,0,2.696-1.074,2.696-2.432C19.403,15.904,18.4,14.859,16.769,14.859"/>
</g>
</svg>