<?xml version="1.0" encoding="UTF-8"?>
<!-- Generator: Adobe Illustrator 16.0.3, SVG Export Plug-In . SVG Version: 6.00 Build 0)  -->
<!DOCTYPE svg PUBLIC "-//W3C//DTD SVG 1.1//EN" "http://www.w3.org/Graphics/SVG/1.1/DTD/svg11.dtd">
<svg version="1.1" id="Layer_1" xmlns="http://www.w3.org/2000/svg" xmlns:xlink="http://www.w3.org/1999/xlink" x="0px" y="0px" width="50px" height="50px" viewBox="0 0 50 50" enable-background="new 0 0 50 50" xml:space="preserve">
<g>
	<path fill="#24A9E6" d="M48.344,25c0,12.893-10.451,23.344-23.344,23.344S1.656,37.893,1.656,25S12.107,1.656,25,1.656   S48.344,12.107,48.344,25"/>
	<path fill="#FFFFFF" d="M35.597,15.629c-0.914,0.555-1.924,0.959-3.003,1.174c-0.859-0.94-2.088-1.528-3.448-1.528   c-2.606,0-4.723,2.169-4.723,4.845c0,0.38,0.041,0.748,0.122,1.104c-3.927-0.203-7.407-2.129-9.739-5.064   c-0.407,0.719-0.639,1.552-0.639,2.439c0,1.68,0.834,3.162,2.102,4.031c-0.773-0.023-1.504-0.244-2.141-0.604v0.059   c0,2.348,1.628,4.307,3.791,4.75c-0.396,0.114-0.813,0.171-1.245,0.171c-0.305,0-0.602-0.028-0.89-0.085   c0.603,1.924,2.346,3.324,4.414,3.362c-1.617,1.3-3.655,2.074-5.868,2.074c-0.381,0-0.758-0.022-1.127-0.066   c2.091,1.372,4.575,2.175,7.241,2.175c8.691,0,13.443-7.381,13.443-13.783c0-0.211-0.004-0.422-0.013-0.628   c0.923-0.684,1.726-1.536,2.356-2.507c-0.847,0.385-1.758,0.646-2.713,0.762C34.494,17.71,35.243,16.761,35.597,15.629"/>
</g>
</svg>