<?xml version="1.0" encoding="UTF-8"?>
<!-- Generator: Adobe Illustrator 24.1.1, SVG Export Plug-In . SVG Version: 6.00 Build 0)  -->
<svg version="1.1" id="Warstwa_1" xmlns="http://www.w3.org/2000/svg" xmlns:xlink="http://www.w3.org/1999/xlink" x="0px" y="0px" width="240" height="60" viewBox="0 0 240 60" style="enable-background:new 0 0 240 60;" xml:space="preserve">
<style type="text/css">
	.st0{fill:#EBF2FF;}
	.st1{fill:#1076F7;}
</style>
<path class="st0" d="M58,10.8c-3.7-3.7-9.2-4.2-12.3-1.1L35.5,20c-0.3,0.3-0.4,0.8-0.2,1.2c5.4-1.4,10.9,1.9,12.3,7.3  c0.4,1.6,0.4,3.4,0,5c0.4,0.2,0.9,0.2,1.2-0.2L59,23.1C62.2,20,61.7,14.5,58,10.8z"/>
<path class="st0" d="M21.1,47.5c3.7,3.7,9.2,4.2,12.3,1.1l10.2-10.2c0.3-0.3,0.4-0.8,0.1-1.2c-5.4,1.4-10.9-1.8-12.3-7.2  c-0.2-0.8-0.3-1.7-0.3-2.5c0-0.9,0.1-1.7,0.3-2.5c-0.4-0.2-0.9-0.2-1.2,0.2L20.1,35.2C17,38.3,17.5,43.8,21.1,47.5z"/>
<path class="st1" d="M31.6,35.6l14.2-14.2c0.3-0.3,0.9-0.3,1.2,0l0.3,0.3c0.3,0.3,0.3,0.9,0,1.2L33.1,37.1c-0.3,0.3-0.9,0.3-1.2,0  l-0.3-0.3C31.3,36.5,31.3,35.9,31.6,35.6z"/>
<path class="st1" d="M42.6,37L32.1,47.6L32,47.7c-3.2,2.8-7.2,1.5-9.8-1.1s-4-6.7-1.1-9.9l0,0l0.2-0.2l0.8-0.8l2.9-2.9l6.6-6.6  c0.4-0.4,0.4-1,0-1.4c0,0,0,0,0,0l0,0c-0.4-0.4-1-0.4-1.4,0c0,0,0,0,0,0L19.6,35.2h0c-7.3,8.1,5.8,21.2,13.9,13.8l10.6-10.6  c0.4-0.4,0.4-1,0-1.4c0,0,0,0,0,0l0,0C43.7,36.6,43.1,36.6,42.6,37C42.6,37,42.6,37,42.6,37z"/>
<path class="st1" d="M45.5,9.4L34.9,20c-0.4,0.4-0.4,1,0,1.4c0,0,0,0,0,0l0,0c0.4,0.4,1,0.4,1.4,0c0,0,0,0,0,0l10.6-10.6  c2.4-2.4,6.8-1.9,9.8,1.1c1.5,1.4,2.4,3.3,2.6,5.3c0.2,1.6-0.3,3.3-1.5,4.5L47.3,32.4c-0.4,0.4-0.4,1,0,1.4c0,0,0,0,0,0l0,0  c0.4,0.4,1,0.4,1.4,0c0,0,0,0,0,0l10.6-10.6c3.2-3.2,2.7-8.9-1.1-12.7S48.7,6.2,45.5,9.4z"/>
<path class="st0" d="M185.6,43.1l1.5,1.2h24.6l3-2.4V17.5l-1.2-2.4C213.6,15.1,208.4,31.5,185.6,43.1z"/>
<path class="st1" d="M213.9,43.6c1.4-1.4,2.1-3.2,2.1-5.1V19.6c0-4-3.2-7.2-7.2-7.3c0,0,0,0,0,0H190c-4,0-7.3,3.2-7.3,7.3v18.8  c0,4,3.3,7.3,7.3,7.3h18.8C210.7,45.7,212.6,44.9,213.9,43.6z M186.3,42.1c-1-1-1.5-2.3-1.5-3.7V19.6c0-2.9,2.3-5.2,5.2-5.2h18.8  c2.9,0,5.2,2.3,5.2,5.2v18.8c0,2.9-2.3,5.2-5.2,5.2c0,0,0,0,0,0H190C188.6,43.7,187.3,43.1,186.3,42.1L186.3,42.1z"/>
<path class="st1" d="M221.4,25c0-0.5-0.4-0.9-0.9-0.9c-0.2,0-0.5,0.1-0.6,0.3l-0.5,0.5l0,0v18.8c0,1.3-0.4,2.5-1.2,3.5  c-1,1.2-2.5,1.9-4,1.9h-18.9l-0.5,0.5c-0.4,0.4-0.4,0.9,0,1.3c0.2,0.2,0.4,0.3,0.6,0.3H214c1.7,0,3.3-0.5,4.7-1.6  c1.7-1.4,2.8-3.5,2.8-5.7L221.4,25L221.4,25z"/>
<path class="st1" d="M205.2,32.6c-0.4,0.4-0.9,0.7-1.5,0.9c-0.5,0.2-1.1,0.3-1.7,0.3c-0.6,0-1.2-0.2-1.7-0.5  c-0.6-0.3-1.1-0.7-1.6-1.1c-0.5-0.5-0.8-1-1.1-1.6c-0.3-0.6-0.4-1.1-0.5-1.8c0-0.6,0-1.2,0.2-1.8c0.2-0.6,0.6-1.1,1-1.5  c0.4-0.4,0.9-0.8,1.4-1c0.5-0.2,1-0.4,1.6-0.5c0.2,0,0.3-0.1,0.5-0.1c0.1,0,0.2-0.1,0.3-0.2c0.3-0.4,0.4-0.9,0.2-1.3l-0.7-2.6  c0-0.2-0.1-0.4-0.3-0.5c-0.2-0.2-0.4-0.3-0.6-0.3c-0.2,0-0.5,0-0.7,0h0.1c-1,0.2-2,0.5-2.8,1c-0.9,0.5-1.8,1.1-2.5,1.9  c-0.7,0.6-1.2,1.4-1.7,2.2c-0.4,0.8-0.8,1.6-1,2.4c-0.2,0.8-0.3,1.7-0.3,2.6c0,0.9,0.1,1.7,0.3,2.6c0.2,0.9,0.6,1.7,1,2.4  c0.5,0.8,1,1.6,1.7,2.2c0.6,0.7,1.4,1.2,2.2,1.7c0.8,0.4,1.6,0.8,2.4,1c0.8,0.2,1.7,0.3,2.6,0.3c0.9,0,1.7-0.1,2.6-0.3  c0.8-0.2,1.7-0.6,2.4-1l0.5-0.3c-0.7-0.9-1.3-1.9-1.7-3C205.5,33.9,205.3,33.3,205.2,32.6z"/>
<path class="st1" d="M203.9,9.5h0.1l0.5-0.5c0.4-0.3,0.4-0.9,0-1.3c-0.2-0.2-0.4-0.3-0.7-0.3h-18.7c-1.7,0-3.3,0.5-4.7,1.5  c-1.7,1.4-2.8,3.5-2.8,5.7v18.9l1.5,0.6l0.5-0.5l0,0V14.9c0-1.4,0.5-2.7,1.4-3.8c1-1,2.3-1.6,3.8-1.6L203.9,9.5z"/>
<path class="st0" d="M101.7,48l2,1.7H137l4.1-3.3V13.5l-1.6-3.3C139.5,10.2,132.5,32.4,101.7,48z"/>
<path class="st1" d="M135.1,7.5H106c-4,0-7.2,3.2-7.2,7.2v29.1c0,4,3.2,7.2,7.2,7.2h29.1c4,0,7.2-3.2,7.2-7.2V14.7  C142.4,10.7,139.1,7.5,135.1,7.5z M140.3,43.8c0,2.9-2.3,5.2-5.2,5.2H106c-2.9,0-5.2-2.3-5.2-5.2l0,0V14.7c0-2.9,2.3-5.2,5.2-5.2  h29.1c2.9,0,5.2,2.3,5.2,5.2L140.3,43.8z"/>
<path class="st1" d="M108,32.1c-0.6,0-1,0.4-1,1v10.3c0,0.6,0.5,1,1,1s1-0.5,1-1V33.2C109.1,32.6,108.6,32.1,108,32.1  C108.1,32.1,108,32.1,108,32.1z"/>
<path class="st1" d="M114.4,23.1c-0.6,0-1,0.4-1,1v19.4c0,0.6,0.4,1,1,1s1-0.4,1-1V24.1C115.4,23.5,115,23.1,114.4,23.1  C114.4,23.1,114.4,23.1,114.4,23.1z"/>
<path class="st1" d="M120.8,14c-0.6,0-1,0.4-1,1v28.4c0,0.6,0.5,1,1,1s1-0.5,1-1V15.1c0-0.6-0.4-1-0.9-1.1  C120.8,14,120.8,14,120.8,14z"/>
<path class="st1" d="M133.5,19c-0.6,0-1,0.4-1,1v23.4c0,0.6,0.5,1,1,1s1-0.5,1-1V20C134.6,19.4,134.1,19,133.5,19  C133.6,19,133.5,19,133.5,19z"/>
<path class="st1" d="M127.2,28c-0.6,0-1,0.4-1,1v14.4c0,0.6,0.4,1,1,1c0.6,0,1-0.4,1-1c0,0,0,0,0,0V29C128.1,28.4,127.7,28,127.2,28  z"/>
</svg>