<svg xmlns="http://www.w3.org/2000/svg" viewBox="0 0 256 256"><path d="M98.74,229.5,122,242.59a12.9,12.9,0,0,0,13-.18l21.43-12.85a12.94,12.94,0,0,0,6.27-11.08v-.25a12.93,12.93,0,0,0-12.92-12.92h-44.7a12.93,12.93,0,0,0-12.93,12.92h0A12.93,12.93,0,0,0,98.74,229.5Z" fill="#ebf2ff"/><path d="M179.61,63.52C172.56,52.63,163.4,43,154.46,33.61c-6.21-6.54-12.91-16-21.83-19.14A20.75,20.75,0,0,1,129.47,13c2.84,25.84,3.36,47.74,2.22,66.31,30.49,3.24,29.34,51.09-3.31,51.09a30,30,0,0,1-5.84-.55c-17.26,50.62-51.46,52.66-51.46,52.66v2.28l16.62,4.56a17.7,17.7,0,0,1,9.55-2.58c28.19-.05,56.49-1.65,84.64-.41,1.29,0,3.11.36,4.64.27a9,9,0,0,0,.84-2.08c1.76-6.26,6-11.75,8.5-17.73a87.05,87.05,0,0,0,6.24-33.8C201.78,108.59,192.92,84.08,179.61,63.52Z" fill="#ebf2ff"/><path d="M132.65,9.37a5.66,5.66,0,0,0-2-1.49,5.91,5.91,0,0,0-6.19.75C34.17,81.24,42.71,147.82,65.77,190.88a5.82,5.82,0,0,0,5.16,3.05H185.5a5.85,5.85,0,0,0,5.17-3.05C213.6,148,222.09,81.69,132.65,9.37Zm49.27,173.18H74.51c-27.82-55.08-9.8-109.57,53.6-162C191.58,73,209.68,127.47,181.92,182.55Z" fill="#1076f7"/><path d="M255.36,204.91,225.24,153.1a4.79,4.79,0,0,0-8.85,1.63,120.06,120.06,0,0,1-10.72,33.88,4.6,4.6,0,0,0,2.5,6.25l41.22,16.65C253.58,213.21,257.6,208.76,255.36,204.91Z" fill="#1076f7"/><path d="M39.61,154.27a4.79,4.79,0,0,0-8.85-1.63L.64,204.45a4.7,4.7,0,0,0,6,6.6L47.83,194.4a4.6,4.6,0,0,0,2.5-6.25A120.06,120.06,0,0,1,39.61,154.27Z" fill="#1076f7"/><path d="M127.88,200.76a5.76,5.76,0,0,0-5.83,5.69v36.41a5.83,5.83,0,0,0,11.65,0V206.45A5.75,5.75,0,0,0,127.88,200.76Z" fill="#1076f7"/><path d="M162.84,200.77a5.76,5.76,0,0,0-5.83,5.69v17.06a5.83,5.83,0,0,0,11.66,0V206.46A5.76,5.76,0,0,0,162.84,200.77Z" fill="#1076f7"/><path d="M92.92,201.34A5.76,5.76,0,0,0,87.09,207v17.06a5.83,5.83,0,0,0,11.65,0V207A5.76,5.76,0,0,0,92.92,201.34Z" fill="#1076f7"/><path d="M128.18,71.05c-18.63,0-33.79,14.8-33.79,33s15.16,33,33.79,33,33.8-14.8,33.8-33S146.82,71.05,128.18,71.05Zm0,54.61C116,125.66,106,116,106,104.05S116,82.43,128.18,82.43s22.15,9.7,22.15,21.62S140.39,125.66,128.18,125.66Z" fill="#1076f7"/></svg>